<?xml version="1.0" standalone="no"?>
<!DOCTYPE svg PUBLIC "-//W3C//DTD SVG 20010904//EN"
 "http://www.w3.org/TR/2001/REC-SVG-20010904/DTD/svg10.dtd">
<svg version="1.0" xmlns="http://www.w3.org/2000/svg"
 width="467.000000pt" height="340.000000pt" viewBox="0 0 467.000000 340.000000"
 preserveAspectRatio="xMidYMid meet">

<g transform="translate(0.000000,340.000000) scale(0.100000,-0.100000)"
fill="#000000" stroke="none">
<path d="M1770 2837 c0 -22 107 -222 133 -248 25 -25 85 -42 74 -21 -39 74
-56 132 -39 132 9 0 34 -28 50 -56 11 -18 11 -18 12 4 0 12 -4 22 -10 22 -5 0
-10 6 -10 14 0 31 -38 77 -95 114 -60 39 -115 58 -115 39z"/>
<path d="M2370 2832 c0 -4 12 -19 28 -34 38 -36 46 -47 65 -96 23 -59 22 -81
-12 -148 -52 -103 -149 -188 -301 -264 -97 -49 -106 -52 -179 -74 -70 -21
-235 -22 -275 -1 -15 8 -35 15 -42 15 -8 0 -14 5 -14 10 0 6 -4 10 -10 10 -19
0 -10 -15 23 -36 54 -35 128 -47 243 -40 57 4 104 5 104 2 0 -6 -58 -36 -95
-48 -76 -24 -215 -48 -283 -48 -94 0 -155 -16 -261 -68 -42 -21 -151 -123
-151 -141 0 -9 10 -6 33 9 94 63 224 104 357 114 95 7 129 -3 96 -29 -52 -39
-87 -79 -117 -132 -33 -57 -34 -61 -34 -173 0 -112 6 -144 44 -250 13 -38 16
-41 19 -20 7 68 36 181 57 227 63 135 191 238 410 327 39 15 84 35 102 42 17
8 34 14 38 14 18 0 205 97 250 130 70 51 158 149 186 207 46 93 52 209 14 288
-29 62 -106 132 -192 175 -81 40 -103 47 -103 32z"/>
<path d="M2165 2711 c-58 -32 -117 -113 -97 -133 9 -9 12 -8 12 5 0 9 5 17 10
17 6 0 10 -6 10 -14 0 -8 -4 -18 -10 -21 -16 -10 -12 -55 6 -62 24 -9 65 41
113 136 22 47 41 88 41 93 0 15 -35 7 -85 -21z"/>
<path d="M1806 2476 c-47 -30 -116 -96 -116 -113 0 -13 69 -10 145 7 22 5 58
11 81 14 93 13 149 58 87 71 -16 4 -36 10 -45 16 -12 6 -18 6 -18 -1 0 -5 -17
-10 -37 -9 l-38 1 33 9 c45 13 40 29 -10 29 -27 -1 -57 -9 -82 -24z"/>
<path d="M2767 2460 c-3 -8 -10 -44 -17 -80 -14 -79 -29 -126 -69 -213 -39
-85 -45 -127 -31 -202 23 -120 23 -135 5 -155 -10 -11 -31 -20 -46 -20 -47 0
-59 -9 -59 -47 0 -40 -15 -73 -34 -73 -7 0 -16 -12 -19 -28 -4 -20 -15 -31
-40 -40 -33 -12 -57 -45 -57 -81 0 -10 -15 -26 -34 -36 l-34 -18 -67 34 c-37
19 -78 40 -91 47 -14 7 -39 16 -58 19 -30 5 -36 1 -69 -45 -34 -46 -37 -55
-37 -119 0 -62 4 -76 36 -128 19 -33 39 -62 42 -65 4 -3 23 -25 42 -50 19 -25
42 -52 50 -60 32 -30 167 -216 189 -260 l23 -45 -6 60 c-2 33 -10 80 -16 105
-19 77 -23 158 -10 205 15 55 85 134 102 117 9 -9 8 -22 -3 -54 -9 -28 -14
-87 -14 -169 0 -118 2 -129 28 -181 15 -30 41 -68 57 -83 29 -28 39 -22 21 13
-20 37 -33 132 -28 193 11 118 36 226 61 265 20 30 32 25 39 -18 19 -122 61
-220 120 -281 40 -41 113 -85 124 -74 3 3 -8 25 -25 49 -16 24 -37 71 -47 105
-15 55 -16 77 -6 186 9 101 8 140 -4 217 -9 51 -13 95 -10 98 2 3 37 -28 77
-69 100 -101 138 -179 139 -286 1 -73 2 -75 11 -38 17 69 21 186 7 230 -7 22
-38 76 -69 120 -67 96 -91 147 -80 165 7 12 13 12 37 1 40 -19 129 -41 161
-41 26 1 26 1 -8 18 -62 30 -116 75 -153 127 -57 82 -73 153 -87 400 -10 161
-33 313 -43 285z"/>
<path d="M1358 2333 c-68 -20 -65 -43 6 -43 62 0 87 18 58 42 -15 13 -23 13
-64 1z"/>
<path d="M1248 2173 c7 -3 16 -2 19 1 4 3 -2 6 -13 5 -11 0 -14 -3 -6 -6z"/>
</g>
</svg>
